{"title":"Fast And Furious 7 {2015} NEWSOURCE HQTS XVID AC3 MURD3R","uid":11828183,"size":1948824846,"categoryP":"video","categoryS":"movies","magnet":"?xt=urn:btih:34e4266e42ea7b0954dd8076784fd3b1d613b580&amp;dn=Fast+And+Furious+7+%7B2015%7D+NEWSOURCE+HQTS+XVID+AC3+MURD3R&amp;tr=udp%3A%2F%2Ftracker.openbittorrent.com%3A80&amp;tr=udp%3A%2F%2Fopen.demonii.com%3A1337&amp;tr=udp%3A%2F%2Ftracker.coppersurfer.tk%3A6969&amp;tr=udp%3A%2F%2Fexodus.desync.com%3A6969","seeders":10,"leechers":1,"uploader":".BONE.","files":2,"time":1429548531,"description":"Fast And Furious 7 {2015} NEWSOURCE HQTS XVID AC3 MURD3R.avi\n\nnew source here ...no..subs....line audio........full movie...\n\n\nFormat                      : AVI\nFormat/Info                 : Audio Video Interleave\nFile size                   : 1.81 GiB\nDuration                    : 2h 9mn\nOverall bit rate            : 1 999 Kbps\n\nVideo\nID                          : 0\nFormat                      : MPEG-4 Visual\nFormat profile              : Advanced Simple@L5\nFormat settings, BVOP       : 2\nFormat settings, QPel       : No\nFormat settings, GMC        : No warppoints\nFormat settings, Matrix     : Default (H.263)\nCodec ID                    : XVID\nCodec ID/Hint               : XviD\nDuration                    : 2h 9mn\nBit rate                    : 1 862 Kbps\nWidth                       : 624 pixels\nHeight                      : 272 pixels\nDisplay aspect ratio        : 2.25:1\nFrame rate                  : 25.000 fps\nColor space                 : YUV\nChroma subsampling          : 4:2:0\nBit depth                   : 8 bits\nScan type                   : Progressive\nCompression mode            : Lossy\nBits/(Pixel*Frame)          : 0.439\nStream size                 : 1.69 GiB (93%)\nWriting library             : XviD 73\n\nAudio\nID                          : 1\nFormat                      : AC-3\nFormat/Info                 : Audio Coding 3\nMode extension              : CM (complete main)\nFormat settings, Endianness : Big\nCodec ID                    : 2000\nDuration                    : 2h 9mn\nBit rate mode               : Constant\nBit rate                    : 128 Kbps\nChannel(s)                  : 2 channels\nChannel positions           : Front: L R\nSampling rate               : 32.0 KHz\nBit depth                   : 16 bits\nCompression mode            : Lossy\nStream size                 : 119 MiB (6%)\nAlignment                   : Aligned on interleaves\nInterleave, duration        : 48 ms (1.20 video frame)\n &lt;a href=&quot;\nhttp://s20.postimage.org/r8h6d3it9/MURD3_Rvlcsnap_2015_04_20_14h55m52s111.png&quot; rel=&quot;nofollow&quot; target=&quot;_NEW&quot;&gt;\nhttp://s20.postimage.org/r8h6d3it9/MURD3_Rvlcsnap_2015_04_20_14h55m52s111.png&lt;/a&gt; &lt;a href=&quot;\nhttp://s20.postimage.org/p6lacla7x/MURD3_Rvlcsnap_2015_04_20_14h57m47s231.png&quot; rel=&quot;nofollow&quot; target=&quot;_NEW&quot;&gt;\nhttp://s20.postimage.org/p6lacla7x/MURD3_Rvlcsnap_2015_04_20_14h57m47s231.png&lt;/a&gt; &lt;a href=&quot;\nhttp://s20.postimage.org/641wpnz7h/MURD3_Rvlcsnap_2015_04_20_14h58m02s116.png&quot; rel=&quot;nofollow&quot; target=&quot;_NEW&quot;&gt;\nhttp://s20.postimage.org/641wpnz7h/MURD3_Rvlcsnap_2015_04_20_14h58m02s116.png&lt;/a&gt; &lt;a href=&quot;\nhttp://s20.postimage.org/6fjd2ffnh/MURD3_Rvlcsnap_2015_04_20_14h58m47s70.png&quot; rel=&quot;nofollow&quot; target=&quot;_NEW&quot;&gt;\nhttp://s20.postimage.org/6fjd2ffnh/MURD3_Rvlcsnap_2015_04_20_14h58m47s70.png&lt;/a&gt; &lt;a href=&quot;\nhttp://s20.postimage.org/y1qq0uoe5/MURD3_Rvlcsnap_2015_04_20_15h02m57s3.png&quot; rel=&quot;nofollow&quot; target=&quot;_NEW&quot;&gt;\nhttp://s20.postimage.org/y1qq0uoe5/MURD3_Rvlcsnap_2015_04_20_15h02m57s3.png&lt;/a&gt; &lt;a href=&quot;\nhttp://s20.postimage.org/6fnyg6519/MURD3_Rvlcsnap_2015_04_20_15h06m21s2.png&quot; rel=&quot;nofollow&quot; target=&quot;_NEW&quot;&gt;\nhttp://s20.postimage.org/6fnyg6519/MURD3_Rvlcsnap_2015_04_20_15h06m21s2.png&lt;/a&gt;","torrent":{"xt":"urn:btih:34e4266e42ea7b0954dd8076784fd3b1d613b580","amp;dn":"Fast+And+Furious+7+%7B2015%7D+NEWSOURCE+HQTS+XVID+AC3+MURD3R","amp;tr":["udp%3A%2F%2Ftracker.openbittorrent.com%3A80","udp%3A%2F%2Fopen.demonii.com%3A1337","udp%3A%2F%2Ftracker.coppersurfer.tk%3A6969","udp%3A%2F%2Fexodus.desync.com%3A6969"],"infoHash":"34e4266e42ea7b0954dd8076784fd3b1d613b580","infoHashBuffer":{"type":"Buffer","data":[52,228,38,110,66,234,123,9,84,221,128,118,120,79,211,177,214,19,181,128]},"announce":[],"urlList":[]}}